<svg xmlns="http://www.w3.org/2000/svg" xmlns:xlink="http://www.w3.org/1999/xlink" width="500" zoomAndPan="magnify" viewBox="0 0 375 374.999991" height="500" preserveAspectRatio="xMidYMid meet" version="1.0"><defs><filter x="0%" y="0%" width="100%" height="100%" id="1cff3b642d"><feColorMatrix values="0 0 0 0 1 0 0 0 0 1 0 0 0 0 1 0 0 0 1 0" color-interpolation-filters="sRGB"/></filter><clipPath id="d926f26930"><path d="M 48 92 L 325 92 L 325 369 L 48 369 Z M 48 92 " clip-rule="nonzero"/></clipPath><clipPath id="85d15d3676"><path d="M 214.492188 89.148438 L 327.886719 259.441406 L 158.917969 371.960938 L 45.519531 201.667969 Z M 214.492188 89.148438 " clip-rule="nonzero"/></clipPath><clipPath id="a080f6cd35"><path d="M 218.648438 95.394531 L 323.648438 253.074219 C 324.75 254.726562 325.148438 256.753906 324.757812 258.703125 C 324.367188 260.65625 323.21875 262.371094 321.5625 263.472656 L 165.074219 367.675781 C 163.417969 368.777344 161.394531 369.179688 159.445312 368.789062 C 157.492188 368.394531 155.777344 367.246094 154.675781 365.589844 L 49.675781 207.910156 C 48.574219 206.253906 48.175781 204.230469 48.566406 202.277344 C 48.957031 200.328125 50.105469 198.613281 51.761719 197.511719 L 208.25 93.308594 C 209.902344 92.203125 211.929688 91.804688 213.878906 92.195312 C 215.832031 92.585938 217.546875 93.738281 218.648438 95.394531 Z M 218.648438 95.394531 " clip-rule="nonzero"/></clipPath><clipPath id="54f72ca8a5"><path d="M 214.492188 89.148438 L 327.886719 259.441406 L 158.917969 371.960938 L 45.519531 201.667969 Z M 214.492188 89.148438 " clip-rule="nonzero"/></clipPath><clipPath id="31c88024dc"><path d="M 214.488281 89.144531 L 327.800781 259.3125 L 158.832031 371.828125 L 45.515625 201.664062 Z M 214.488281 89.144531 " clip-rule="nonzero"/></clipPath><linearGradient x1="128.904007" gradientTransform="matrix(0.439524, 0.660044, -0.660044, 0.439524, 214.488269, 89.146238)" y1="-114.293875" x2="128.904007" gradientUnits="userSpaceOnUse" y2="370.293859" id="e80a47f68c"><stop stop-opacity="1" stop-color="rgb(96.099854%, 83.499146%, 27.799988%)" offset="0"/><stop stop-opacity="1" stop-color="rgb(96.099854%, 83.499146%, 27.799988%)" offset="0.125"/><stop stop-opacity="1" stop-color="rgb(96.099854%, 83.499146%, 27.799988%)" offset="0.1875"/><stop stop-opacity="1" stop-color="rgb(96.099854%, 83.499146%, 27.799988%)" offset="0.21875"/><stop stop-opacity="1" stop-color="rgb(96.099854%, 83.499146%, 27.799988%)" offset="0.234375"/><stop stop-opacity="1" stop-color="rgb(95.658875%, 83.291626%, 27.792358%)" offset="0.238281"/><stop stop-opacity="1" stop-color="rgb(95.219421%, 83.085632%, 27.786255%)" offset="0.242187"/><stop stop-opacity="1" stop-color="rgb(94.676208%, 82.830811%, 27.7771%)" offset="0.246094"/><stop stop-opacity="1" stop-color="rgb(94.134521%, 82.575989%, 27.76947%)" offset="0.25"/><stop stop-opacity="1" stop-color="rgb(93.591309%, 82.319641%, 27.761841%)" offset="0.253906"/><stop stop-opacity="1" stop-color="rgb(93.049622%, 82.064819%, 27.754211%)" offset="0.257812"/><stop stop-opacity="1" stop-color="rgb(92.506409%, 81.809998%, 27.745056%)" offset="0.261719"/><stop stop-opacity="1" stop-color="rgb(91.963196%, 81.555176%, 27.737427%)" offset="0.265625"/><stop stop-opacity="1" stop-color="rgb(91.419983%, 81.300354%, 27.728271%)" offset="0.269531"/><stop stop-opacity="1" stop-color="rgb(90.878296%, 81.045532%, 27.720642%)" offset="0.273438"/><stop stop-opacity="1" stop-color="rgb(90.335083%, 80.789185%, 27.713013%)" offset="0.277344"/><stop stop-opacity="1" stop-color="rgb(89.79187%, 80.534363%, 27.705383%)" offset="0.28125"/><stop stop-opacity="1" stop-color="rgb(89.248657%, 80.279541%, 27.696228%)" offset="0.285156"/><stop stop-opacity="1" stop-color="rgb(88.70697%, 80.024719%, 27.688599%)" offset="0.289062"/><stop stop-opacity="1" stop-color="rgb(88.163757%, 79.769897%, 27.679443%)" offset="0.292969"/><stop stop-opacity="1" stop-color="rgb(87.62207%, 79.515076%, 27.671814%)" offset="0.296875"/><stop stop-opacity="1" stop-color="rgb(87.078857%, 79.258728%, 27.664185%)" offset="0.300781"/><stop stop-opacity="1" stop-color="rgb(86.535645%, 79.003906%, 27.656555%)" offset="0.304688"/><stop stop-opacity="1" stop-color="rgb(85.992432%, 78.749084%, 27.6474%)" offset="0.308594"/><stop stop-opacity="1" stop-color="rgb(85.450745%, 78.494263%, 27.639771%)" offset="0.3125"/><stop stop-opacity="1" stop-color="rgb(84.907532%, 78.239441%, 27.630615%)" offset="0.316406"/><stop stop-opacity="1" stop-color="rgb(84.365845%, 77.984619%, 27.622986%)" offset="0.320312"/><stop stop-opacity="1" stop-color="rgb(83.822632%, 77.728271%, 27.615356%)" offset="0.324219"/><stop stop-opacity="1" stop-color="rgb(83.279419%, 77.47345%, 27.607727%)" offset="0.328125"/><stop stop-opacity="1" stop-color="rgb(82.736206%, 77.218628%, 27.598572%)" offset="0.332031"/><stop stop-opacity="1" stop-color="rgb(82.194519%, 76.963806%, 27.590942%)" offset="0.335937"/><stop stop-opacity="1" stop-color="rgb(81.651306%, 76.707458%, 27.581787%)" offset="0.339844"/><stop stop-opacity="1" stop-color="rgb(81.108093%, 76.452637%, 27.574158%)" offset="0.34375"/><stop stop-opacity="1" stop-color="rgb(80.56488%, 76.197815%, 27.566528%)" offset="0.347656"/><stop stop-opacity="1" stop-color="rgb(80.023193%, 75.942993%, 27.558899%)" offset="0.351562"/><stop stop-opacity="1" stop-color="rgb(79.47998%, 75.688171%, 27.549744%)" offset="0.355469"/><stop stop-opacity="1" stop-color="rgb(78.938293%, 75.43335%, 27.542114%)" offset="0.359375"/><stop stop-opacity="1" stop-color="rgb(78.395081%, 75.177002%, 27.532959%)" offset="0.363281"/><stop stop-opacity="1" stop-color="rgb(77.851868%, 74.92218%, 27.52533%)" offset="0.367188"/><stop stop-opacity="1" stop-color="rgb(77.308655%, 74.667358%, 27.5177%)" offset="0.371094"/><stop stop-opacity="1" stop-color="rgb(76.766968%, 74.412537%, 27.510071%)" offset="0.375"/><stop stop-opacity="1" stop-color="rgb(76.223755%, 74.157715%, 27.500916%)" offset="0.378906"/><stop stop-opacity="1" stop-color="rgb(75.682068%, 73.902893%, 27.493286%)" offset="0.382812"/><stop stop-opacity="1" stop-color="rgb(75.138855%, 73.646545%, 27.484131%)" offset="0.386719"/><stop stop-opacity="1" stop-color="rgb(74.595642%, 73.391724%, 27.476501%)" offset="0.390625"/><stop stop-opacity="1" stop-color="rgb(74.052429%, 73.136902%, 27.468872%)" offset="0.394531"/><stop stop-opacity="1" stop-color="rgb(73.510742%, 72.88208%, 27.461243%)" offset="0.398438"/><stop stop-opacity="1" stop-color="rgb(72.967529%, 72.625732%, 27.452087%)" offset="0.402344"/><stop stop-opacity="1" stop-color="rgb(72.424316%, 72.370911%, 27.444458%)" offset="0.40625"/><stop stop-opacity="1" stop-color="rgb(71.881104%, 72.116089%, 27.435303%)" offset="0.410156"/><stop stop-opacity="1" stop-color="rgb(71.339417%, 71.861267%, 27.427673%)" offset="0.414062"/><stop stop-opacity="1" stop-color="rgb(70.796204%, 71.606445%, 27.420044%)" offset="0.417969"/><stop stop-opacity="1" stop-color="rgb(70.254517%, 71.351624%, 27.412415%)" offset="0.421875"/><stop stop-opacity="1" stop-color="rgb(69.711304%, 71.095276%, 27.403259%)" offset="0.425781"/><stop stop-opacity="1" stop-color="rgb(69.168091%, 70.840454%, 27.39563%)" offset="0.429688"/><stop stop-opacity="1" stop-color="rgb(68.624878%, 70.585632%, 27.386475%)" offset="0.433594"/><stop stop-opacity="1" stop-color="rgb(68.083191%, 70.330811%, 27.378845%)" offset="0.4375"/><stop stop-opacity="1" stop-color="rgb(67.539978%, 70.075989%, 27.371216%)" offset="0.441406"/><stop stop-opacity="1" stop-color="rgb(66.998291%, 69.821167%, 27.363586%)" offset="0.445312"/><stop stop-opacity="1" stop-color="rgb(66.455078%, 69.564819%, 27.354431%)" offset="0.449219"/><stop stop-opacity="1" stop-color="rgb(65.911865%, 69.309998%, 27.346802%)" offset="0.453125"/><stop stop-opacity="1" stop-color="rgb(65.368652%, 69.055176%, 27.337646%)" offset="0.457031"/><stop stop-opacity="1" stop-color="rgb(64.826965%, 68.800354%, 27.330017%)" offset="0.460937"/><stop stop-opacity="1" stop-color="rgb(64.283752%, 68.545532%, 27.322388%)" offset="0.464844"/><stop stop-opacity="1" stop-color="rgb(63.74054%, 68.29071%, 27.314758%)" offset="0.46875"/><stop stop-opacity="1" stop-color="rgb(63.197327%, 68.034363%, 27.305603%)" offset="0.472656"/><stop stop-opacity="1" stop-color="rgb(62.65564%, 67.779541%, 27.297974%)" offset="0.476562"/><stop stop-opacity="1" stop-color="rgb(62.112427%, 67.524719%, 27.288818%)" offset="0.480469"/><stop stop-opacity="1" stop-color="rgb(61.57074%, 67.269897%, 27.281189%)" offset="0.484375"/><stop stop-opacity="1" stop-color="rgb(61.027527%, 67.01355%, 27.27356%)" offset="0.488281"/><stop stop-opacity="1" stop-color="rgb(60.484314%, 66.758728%, 27.26593%)" offset="0.492188"/><stop stop-opacity="1" stop-color="rgb(59.941101%, 66.503906%, 27.256775%)" offset="0.496094"/><stop stop-opacity="1" stop-color="rgb(59.399414%, 66.249084%, 27.249146%)" offset="0.5"/><stop stop-opacity="1" stop-color="rgb(58.856201%, 65.994263%, 27.23999%)" offset="0.503906"/><stop stop-opacity="1" stop-color="rgb(58.314514%, 65.739441%, 27.232361%)" offset="0.507812"/><stop stop-opacity="1" stop-color="rgb(57.771301%, 65.483093%, 27.224731%)" offset="0.511719"/><stop stop-opacity="1" stop-color="rgb(57.228088%, 65.228271%, 27.217102%)" offset="0.515625"/><stop stop-opacity="1" stop-color="rgb(56.684875%, 64.97345%, 27.207947%)" offset="0.519531"/><stop stop-opacity="1" stop-color="rgb(56.143188%, 64.718628%, 27.200317%)" offset="0.523438"/><stop stop-opacity="1" stop-color="rgb(55.599976%, 64.463806%, 27.191162%)" offset="0.527344"/><stop stop-opacity="1" stop-color="rgb(55.056763%, 64.208984%, 27.183533%)" offset="0.53125"/><stop stop-opacity="1" stop-color="rgb(54.51355%, 63.952637%, 27.175903%)" offset="0.535156"/><stop stop-opacity="1" stop-color="rgb(53.971863%, 63.697815%, 27.168274%)" offset="0.539062"/><stop stop-opacity="1" stop-color="rgb(53.42865%, 63.442993%, 27.159119%)" offset="0.542969"/><stop stop-opacity="1" stop-color="rgb(52.886963%, 63.188171%, 27.151489%)" offset="0.546875"/><stop stop-opacity="1" stop-color="rgb(52.34375%, 62.93335%, 27.142334%)" offset="0.550781"/><stop stop-opacity="1" stop-color="rgb(51.800537%, 62.678528%, 27.134705%)" offset="0.554688"/><stop stop-opacity="1" stop-color="rgb(51.257324%, 62.42218%, 27.127075%)" offset="0.558594"/><stop stop-opacity="1" stop-color="rgb(50.715637%, 62.167358%, 27.119446%)" offset="0.5625"/><stop stop-opacity="1" stop-color="rgb(50.172424%, 61.912537%, 27.110291%)" offset="0.566406"/><stop stop-opacity="1" stop-color="rgb(49.630737%, 61.657715%, 27.102661%)" offset="0.570312"/><stop stop-opacity="1" stop-color="rgb(49.087524%, 61.401367%, 27.093506%)" offset="0.574219"/><stop stop-opacity="1" stop-color="rgb(48.544312%, 61.146545%, 27.085876%)" offset="0.578125"/><stop stop-opacity="1" stop-color="rgb(48.001099%, 60.891724%, 27.078247%)" offset="0.582031"/><stop stop-opacity="1" stop-color="rgb(47.459412%, 60.636902%, 27.070618%)" offset="0.585938"/><stop stop-opacity="1" stop-color="rgb(46.916199%, 60.38208%, 27.061462%)" offset="0.589844"/><stop stop-opacity="1" stop-color="rgb(46.372986%, 60.127258%, 27.053833%)" offset="0.59375"/><stop stop-opacity="1" stop-color="rgb(45.829773%, 59.870911%, 27.044678%)" offset="0.597656"/><stop stop-opacity="1" stop-color="rgb(45.288086%, 59.616089%, 27.037048%)" offset="0.601562"/><stop stop-opacity="1" stop-color="rgb(44.744873%, 59.361267%, 27.029419%)" offset="0.605469"/><stop stop-opacity="1" stop-color="rgb(44.203186%, 59.106445%, 27.02179%)" offset="0.609375"/><stop stop-opacity="1" stop-color="rgb(43.659973%, 58.851624%, 27.012634%)" offset="0.613281"/><stop stop-opacity="1" stop-color="rgb(43.11676%, 58.596802%, 27.005005%)" offset="0.617187"/><stop stop-opacity="1" stop-color="rgb(42.573547%, 58.340454%, 26.99585%)" offset="0.621094"/><stop stop-opacity="1" stop-color="rgb(42.03186%, 58.085632%, 26.98822%)" offset="0.625"/><stop stop-opacity="1" stop-color="rgb(41.488647%, 57.830811%, 26.980591%)" offset="0.628906"/><stop stop-opacity="1" stop-color="rgb(40.94696%, 57.575989%, 26.972961%)" offset="0.632812"/><stop stop-opacity="1" stop-color="rgb(40.403748%, 57.321167%, 26.963806%)" offset="0.636719"/><stop stop-opacity="1" stop-color="rgb(39.860535%, 57.066345%, 26.956177%)" offset="0.640625"/><stop stop-opacity="1" stop-color="rgb(39.317322%, 56.809998%, 26.948547%)" offset="0.644531"/><stop stop-opacity="1" stop-color="rgb(38.775635%, 56.555176%, 26.940918%)" offset="0.648438"/><stop stop-opacity="1" stop-color="rgb(38.232422%, 56.300354%, 26.931763%)" offset="0.652344"/><stop stop-opacity="1" stop-color="rgb(37.689209%, 56.045532%, 26.924133%)" offset="0.65625"/><stop stop-opacity="1" stop-color="rgb(37.145996%, 55.789185%, 26.914978%)" offset="0.660156"/><stop stop-opacity="1" stop-color="rgb(36.604309%, 55.534363%, 26.907349%)" offset="0.664062"/><stop stop-opacity="1" stop-color="rgb(36.061096%, 55.279541%, 26.899719%)" offset="0.667969"/><stop stop-opacity="1" stop-color="rgb(35.519409%, 55.024719%, 26.89209%)" offset="0.671875"/><stop stop-opacity="1" stop-color="rgb(34.976196%, 54.769897%, 26.882935%)" offset="0.675781"/><stop stop-opacity="1" stop-color="rgb(34.432983%, 54.515076%, 26.875305%)" offset="0.679687"/><stop stop-opacity="1" stop-color="rgb(33.889771%, 54.258728%, 26.86615%)" offset="0.683594"/><stop stop-opacity="1" stop-color="rgb(33.348083%, 54.003906%, 26.858521%)" offset="0.6875"/><stop stop-opacity="1" stop-color="rgb(32.804871%, 53.749084%, 26.850891%)" offset="0.691406"/><stop stop-opacity="1" stop-color="rgb(32.263184%, 53.494263%, 26.843262%)" offset="0.695312"/><stop stop-opacity="1" stop-color="rgb(31.719971%, 53.239441%, 26.834106%)" offset="0.699219"/><stop stop-opacity="1" stop-color="rgb(31.176758%, 52.984619%, 26.826477%)" offset="0.703125"/><stop stop-opacity="1" stop-color="rgb(30.633545%, 52.728271%, 26.817322%)" offset="0.707031"/><stop stop-opacity="1" stop-color="rgb(30.091858%, 52.47345%, 26.809692%)" offset="0.710938"/><stop stop-opacity="1" stop-color="rgb(29.548645%, 52.218628%, 26.802063%)" offset="0.714844"/><stop stop-opacity="1" stop-color="rgb(29.005432%, 51.963806%, 26.794434%)" offset="0.71875"/><stop stop-opacity="1" stop-color="rgb(28.462219%, 51.708984%, 26.785278%)" offset="0.722656"/><stop stop-opacity="1" stop-color="rgb(27.920532%, 51.454163%, 26.777649%)" offset="0.726562"/><stop stop-opacity="1" stop-color="rgb(27.377319%, 51.197815%, 26.768494%)" offset="0.730469"/><stop stop-opacity="1" stop-color="rgb(26.835632%, 50.942993%, 26.760864%)" offset="0.734375"/><stop stop-opacity="1" stop-color="rgb(26.292419%, 50.688171%, 26.753235%)" offset="0.738281"/><stop stop-opacity="1" stop-color="rgb(25.749207%, 50.43335%, 26.745605%)" offset="0.742188"/><stop stop-opacity="1" stop-color="rgb(25.205994%, 50.177002%, 26.73645%)" offset="0.746094"/><stop stop-opacity="1" stop-color="rgb(24.664307%, 49.92218%, 26.728821%)" offset="0.75"/><stop stop-opacity="1" stop-color="rgb(24.121094%, 49.667358%, 26.719666%)" offset="0.753906"/><stop stop-opacity="1" stop-color="rgb(23.579407%, 49.412537%, 26.712036%)" offset="0.757812"/><stop stop-opacity="1" stop-color="rgb(23.138428%, 49.205017%, 26.705933%)" offset="0.761719"/><stop stop-opacity="1" stop-color="rgb(22.698975%, 48.999023%, 26.699829%)" offset="0.765625"/><stop stop-opacity="1" stop-color="rgb(22.698975%, 48.999023%, 26.699829%)" offset="0.78125"/><stop stop-opacity="1" stop-color="rgb(22.698975%, 48.999023%, 26.699829%)" offset="0.8125"/><stop stop-opacity="1" stop-color="rgb(22.698975%, 48.999023%, 26.699829%)" offset="0.875"/><stop stop-opacity="1" stop-color="rgb(22.698975%, 48.999023%, 26.699829%)" offset="1"/></linearGradient><clipPath id="64458d342b"><path d="M 148.921875 29.570312 L 200.441406 29.570312 L 200.441406 78.78125 L 148.921875 78.78125 Z M 148.921875 29.570312 " clip-rule="nonzero"/></clipPath><clipPath id="73ddadd196"><path d="M 154.171875 29.570312 L 195.015625 29.570312 C 197.917969 29.570312 200.265625 31.917969 200.265625 34.820312 L 200.265625 73.53125 C 200.265625 76.429688 197.917969 78.78125 195.015625 78.78125 L 154.171875 78.78125 C 151.273438 78.78125 148.921875 76.429688 148.921875 73.53125 L 148.921875 34.820312 C 148.921875 31.917969 151.273438 29.570312 154.171875 29.570312 Z M 154.171875 29.570312 " clip-rule="nonzero"/></clipPath><clipPath id="a89255616d"><path d="M 206.210938 3.167969 L 244.5 3.167969 L 244.5 41.90625 L 206.210938 41.90625 Z M 206.210938 3.167969 " clip-rule="nonzero"/></clipPath><clipPath id="b3fc0978ee"><path d="M 211.460938 3.167969 L 239.25 3.167969 C 242.148438 3.167969 244.5 5.519531 244.5 8.417969 L 244.5 36.613281 C 244.5 39.515625 242.148438 41.863281 239.25 41.863281 L 211.460938 41.863281 C 208.5625 41.863281 206.210938 39.515625 206.210938 36.613281 L 206.210938 8.417969 C 206.210938 5.519531 208.5625 3.167969 211.460938 3.167969 Z M 211.460938 3.167969 " clip-rule="nonzero"/></clipPath><mask id="821dd4a858"><g filter="url(#1cff3b642d)"><rect x="-37.5" width="450" fill="#000000" y="-37.499999" height="449.999989" fill-opacity="0.81"/></g></mask><clipPath id="4bed84a958"><path d="M 12 26 L 163 26 L 163 270 L 12 270 Z M 12 26 " clip-rule="nonzero"/></clipPath><clipPath id="e2609dddd0"><path d="M 163.109375 268.082031 L 17.726562 273.9375 L 7.984375 31.882812 L 153.363281 26.03125 Z M 163.109375 268.082031 " clip-rule="nonzero"/></clipPath><clipPath id="382dbf00b7"><path d="M 163.109375 268.082031 L 17.726562 273.9375 L 7.984375 31.882812 L 153.363281 26.03125 Z M 163.109375 268.082031 " clip-rule="nonzero"/></clipPath><clipPath id="72bb5a0d8d"><rect x="0" width="189" y="0" height="300"/></clipPath><mask id="8d742b801a"><g filter="url(#1cff3b642d)"><rect x="-37.5" width="450" fill="#000000" y="-37.499999" height="449.999989" fill-opacity="0.81"/></g></mask><clipPath id="c02e03ef5d"><path d="M 24.355469 24.398438 L 166.105469 24.398438 L 166.105469 260.648438 L 24.355469 260.648438 Z M 24.355469 24.398438 " clip-rule="nonzero"/></clipPath><clipPath id="0d32c8fd96"><rect x="0" width="174" y="0" height="285"/></clipPath><clipPath id="d7385cf5dc"><path d="M 133.15625 177 L 187 177 L 187 224 L 133.15625 224 Z M 133.15625 177 " clip-rule="nonzero"/></clipPath></defs><g clip-path="url(#d926f26930)"><g clip-path="url(#85d15d3676)"><g clip-path="url(#a080f6cd35)"><g clip-path="url(#54f72ca8a5)"><g clip-path="url(#31c88024dc)"><path fill="url(#e80a47f68c)" d="M 240.0625 -35.972656 L -79.789062 177.015625 L 133.261719 496.957031 L 453.109375 283.96875 Z M 240.0625 -35.972656 " fill-rule="nonzero"/></g></g></g></g></g><g clip-path="url(#64458d342b)"><g clip-path="url(#73ddadd196)"><path fill="#f5d547" d="M 148.921875 29.570312 L 200.246094 29.570312 L 200.246094 78.78125 L 148.921875 78.78125 Z M 148.921875 29.570312 " fill-opacity="1" fill-rule="nonzero"/></g></g><g clip-path="url(#a89255616d)"><g clip-path="url(#b3fc0978ee)"><path fill="#f5d547" d="M 206.210938 3.167969 L 244.5 3.167969 L 244.5 41.90625 L 206.210938 41.90625 Z M 206.210938 3.167969 " fill-opacity="1" fill-rule="nonzero"/></g></g><g mask="url(#821dd4a858)"><g transform="matrix(1, 0, 0, 1, 0, 70)"><g clip-path="url(#72bb5a0d8d)"><g clip-path="url(#4bed84a958)"><g clip-path="url(#e2609dddd0)"><g clip-path="url(#382dbf00b7)"><path fill="#00012a" d="M 146.605469 33.027344 C 147.195312 33.566406 147.757812 34.136719 148.289062 34.730469 C 148.824219 35.324219 149.324219 35.941406 149.796875 36.585938 C 150.269531 37.230469 150.707031 37.898438 151.113281 38.585938 C 151.519531 39.273438 151.894531 39.976562 152.230469 40.703125 C 152.566406 41.425781 152.867188 42.164062 153.128906 42.917969 C 153.394531 43.671875 153.617188 44.4375 153.804688 45.214844 C 153.996094 45.992188 154.144531 46.773438 154.253906 47.566406 C 154.363281 48.355469 154.4375 49.148438 154.46875 49.949219 C 154.5 50.746094 154.492188 51.542969 154.445312 52.339844 C 154.398438 53.136719 154.3125 53.929688 154.1875 54.71875 C 154.0625 55.507812 153.902344 56.289062 153.699219 57.0625 C 153.496094 57.835938 153.257812 58.59375 152.980469 59.34375 C 152.703125 60.09375 152.390625 60.824219 152.039062 61.542969 C 151.691406 62.261719 151.304688 62.960938 150.886719 63.640625 C 150.46875 64.320312 150.015625 64.980469 149.535156 65.613281 C 149.050781 66.25 148.535156 66.859375 147.992188 67.445312 L 71.222656 150.402344 L 154.410156 226.917969 C 155 227.457031 155.5625 228.023438 156.09375 228.617188 C 156.628906 229.214844 157.132812 229.832031 157.601562 230.476562 C 158.074219 231.121094 158.515625 231.785156 158.921875 232.472656 C 159.328125 233.160156 159.699219 233.867188 160.035156 234.59375 C 160.371094 235.316406 160.671875 236.054688 160.933594 236.808594 C 161.199219 237.5625 161.425781 238.328125 161.613281 239.105469 C 161.800781 239.878906 161.949219 240.664062 162.058594 241.453125 C 162.171875 242.246094 162.242188 243.039062 162.273438 243.835938 C 162.304688 244.636719 162.296875 245.433594 162.25 246.230469 C 162.207031 247.027344 162.121094 247.820312 161.996094 248.609375 C 161.871094 249.398438 161.707031 250.179688 161.503906 250.953125 C 161.300781 251.722656 161.0625 252.484375 160.785156 253.234375 C 160.507812 253.984375 160.195312 254.714844 159.84375 255.433594 C 159.496094 256.152344 159.109375 256.851562 158.691406 257.53125 C 158.273438 258.210938 157.824219 258.867188 157.339844 259.503906 C 156.855469 260.140625 156.339844 260.75 155.796875 261.335938 C 155.257812 261.921875 154.691406 262.484375 154.097656 263.019531 C 153.503906 263.550781 152.882812 264.054688 152.238281 264.523438 C 151.59375 264.996094 150.929688 265.4375 150.242188 265.84375 C 149.554688 266.25 148.847656 266.621094 148.125 266.957031 C 147.398438 267.292969 146.660156 267.59375 145.90625 267.855469 C 145.152344 268.121094 144.386719 268.347656 143.613281 268.535156 C 142.835938 268.722656 142.050781 268.871094 141.261719 268.980469 C 140.46875 269.09375 139.675781 269.164062 138.878906 269.195312 C 138.082031 269.226562 137.28125 269.21875 136.484375 269.175781 C 135.6875 269.128906 134.894531 269.042969 134.105469 268.917969 C 133.316406 268.792969 132.539062 268.628906 131.765625 268.425781 C 130.992188 268.222656 130.230469 267.984375 129.484375 267.707031 C 128.734375 267.429688 128 267.117188 127.28125 266.765625 C 126.5625 266.417969 125.867188 266.03125 125.183594 265.613281 C 124.503906 265.195312 123.847656 264.746094 123.210938 264.261719 C 122.578125 263.777344 121.964844 263.261719 121.382812 262.71875 L 20.535156 169.675781 C 19.945312 169.136719 19.382812 168.570312 18.851562 167.976562 C 18.316406 167.382812 17.816406 166.761719 17.34375 166.117188 C 16.871094 165.476562 16.433594 164.808594 16.027344 164.121094 C 15.621094 163.433594 15.25 162.726562 14.910156 162.003906 C 14.574219 161.28125 14.273438 160.539062 14.011719 159.785156 C 13.75 159.03125 13.523438 158.269531 13.335938 157.492188 C 13.148438 156.714844 12.996094 155.933594 12.886719 155.140625 C 12.777344 154.351562 12.703125 153.554688 12.671875 152.757812 C 12.640625 151.960938 12.648438 151.164062 12.695312 150.367188 C 12.742188 149.566406 12.828125 148.773438 12.953125 147.988281 C 13.078125 147.199219 13.242188 146.417969 13.441406 145.644531 C 13.644531 144.871094 13.882812 144.113281 14.160156 143.363281 C 14.4375 142.613281 14.753906 141.878906 15.101562 141.164062 C 15.453125 140.445312 15.835938 139.746094 16.253906 139.066406 C 16.671875 138.386719 17.125 137.726562 17.609375 137.09375 C 18.089844 136.457031 18.605469 135.847656 19.148438 135.261719 L 112.191406 34.414062 C 112.730469 33.824219 113.296875 33.265625 113.890625 32.730469 C 114.484375 32.199219 115.105469 31.695312 115.75 31.222656 C 116.394531 30.75 117.058594 30.3125 117.746094 29.90625 C 118.433594 29.5 119.140625 29.128906 119.863281 28.792969 C 120.589844 28.457031 121.328125 28.15625 122.082031 27.890625 C 122.835938 27.628906 123.601562 27.402344 124.375 27.214844 C 125.152344 27.027344 125.9375 26.878906 126.726562 26.765625 C 127.519531 26.65625 128.3125 26.585938 129.109375 26.550781 C 129.910156 26.519531 130.707031 26.527344 131.503906 26.574219 C 132.300781 26.621094 133.09375 26.707031 133.882812 26.832031 C 134.671875 26.957031 135.453125 27.121094 136.222656 27.324219 C 136.996094 27.523438 137.757812 27.765625 138.507812 28.042969 C 139.253906 28.320312 139.988281 28.632812 140.707031 28.980469 C 141.425781 29.332031 142.125 29.714844 142.804688 30.132812 C 143.484375 30.554688 144.140625 31.003906 144.777344 31.488281 C 145.410156 31.972656 146.023438 32.484375 146.605469 33.027344 Z M 146.605469 33.027344 " fill-opacity="1" fill-rule="nonzero"/></g></g></g></g></g></g><g mask="url(#8d742b801a)"><g transform="matrix(1, 0, 0, 1, 201, 88)"><g clip-path="url(#0d32c8fd96)"><g clip-path="url(#c02e03ef5d)"><path fill="#00012a" d="M 31.203125 253.726562 C 30.652344 253.175781 30.128906 252.605469 29.632812 252.003906 C 29.136719 251.40625 28.671875 250.78125 28.238281 250.136719 C 27.804688 249.492188 27.40625 248.828125 27.035156 248.144531 C 26.667969 247.457031 26.335938 246.757812 26.035156 246.039062 C 25.734375 245.320312 25.472656 244.589844 25.246094 243.847656 C 25.019531 243.101562 24.828125 242.351562 24.675781 241.585938 C 24.523438 240.824219 24.410156 240.058594 24.332031 239.285156 C 24.257812 238.507812 24.21875 237.734375 24.21875 236.957031 C 24.21875 236.179688 24.257812 235.402344 24.332031 234.628906 C 24.410156 233.855469 24.523438 233.085938 24.675781 232.324219 C 24.828125 231.5625 25.019531 230.808594 25.246094 230.066406 C 25.472656 229.324219 25.734375 228.589844 26.035156 227.875 C 26.335938 227.15625 26.667969 226.453125 27.035156 225.769531 C 27.40625 225.085938 27.804688 224.421875 28.238281 223.773438 C 28.671875 223.128906 29.136719 222.507812 29.632812 221.910156 C 30.128906 221.308594 30.652344 220.734375 31.203125 220.1875 L 109.140625 142.488281 L 31.203125 64.789062 C 30.652344 64.238281 30.128906 63.667969 29.632812 63.066406 C 29.136719 62.46875 28.671875 61.84375 28.238281 61.199219 C 27.804688 60.554688 27.40625 59.890625 27.035156 59.207031 C 26.667969 58.519531 26.335938 57.820312 26.035156 57.101562 C 25.734375 56.382812 25.472656 55.652344 25.246094 54.910156 C 25.019531 54.164062 24.828125 53.414062 24.675781 52.648438 C 24.523438 51.886719 24.410156 51.121094 24.332031 50.347656 C 24.257812 49.574219 24.21875 48.796875 24.21875 48.019531 C 24.21875 47.242188 24.257812 46.464844 24.332031 45.691406 C 24.410156 44.917969 24.523438 44.148438 24.675781 43.386719 C 24.828125 42.625 25.019531 41.871094 25.246094 41.128906 C 25.472656 40.386719 25.734375 39.652344 26.035156 38.9375 C 26.335938 38.21875 26.667969 37.515625 27.035156 36.832031 C 27.40625 36.148438 27.804688 35.484375 28.238281 34.835938 C 28.671875 34.191406 29.136719 33.570312 29.632812 32.972656 C 30.128906 32.371094 30.652344 31.796875 31.203125 31.25 C 31.753906 30.699219 32.324219 30.175781 32.925781 29.679688 C 33.523438 29.183594 34.144531 28.71875 34.792969 28.285156 C 35.4375 27.851562 36.101562 27.449219 36.785156 27.082031 C 37.472656 26.714844 38.171875 26.378906 38.890625 26.082031 C 39.609375 25.78125 40.339844 25.519531 41.082031 25.292969 C 41.828125 25.066406 42.578125 24.875 43.339844 24.722656 C 44.105469 24.570312 44.871094 24.457031 45.644531 24.378906 C 46.417969 24.304688 47.195312 24.265625 47.972656 24.265625 C 48.75 24.265625 49.527344 24.304688 50.300781 24.378906 C 51.074219 24.457031 51.839844 24.570312 52.605469 24.722656 C 53.367188 24.875 54.121094 25.066406 54.863281 25.292969 C 55.605469 25.519531 56.335938 25.78125 57.054688 26.082031 C 57.773438 26.378906 58.472656 26.714844 59.160156 27.082031 C 59.84375 27.449219 60.507812 27.851562 61.152344 28.285156 C 61.800781 28.71875 62.421875 29.183594 63.019531 29.679688 C 63.621094 30.175781 64.195312 30.699219 64.742188 31.25 L 159.210938 125.71875 C 159.761719 126.265625 160.285156 126.839844 160.78125 127.441406 C 161.277344 128.039062 161.742188 128.660156 162.175781 129.304688 C 162.609375 129.953125 163.011719 130.617188 163.378906 131.300781 C 163.746094 131.984375 164.082031 132.6875 164.378906 133.40625 C 164.679688 134.121094 164.941406 134.855469 165.167969 135.597656 C 165.394531 136.339844 165.585938 137.09375 165.738281 137.855469 C 165.890625 138.617188 166.003906 139.386719 166.082031 140.160156 C 166.15625 140.933594 166.195312 141.710938 166.195312 142.488281 C 166.195312 143.265625 166.15625 144.039062 166.082031 144.816406 C 166.003906 145.589844 165.890625 146.355469 165.738281 147.117188 C 165.585938 147.882812 165.394531 148.632812 165.167969 149.378906 C 164.941406 150.121094 164.679688 150.851562 164.378906 151.570312 C 164.082031 152.289062 163.746094 152.988281 163.378906 153.675781 C 163.011719 154.359375 162.609375 155.023438 162.175781 155.667969 C 161.742188 156.3125 161.277344 156.9375 160.78125 157.535156 C 160.285156 158.136719 159.761719 158.707031 159.210938 159.257812 L 64.742188 253.726562 C 64.195312 254.277344 63.621094 254.800781 63.019531 255.296875 C 62.421875 255.792969 61.800781 256.257812 61.152344 256.691406 C 60.507812 257.125 59.84375 257.523438 59.160156 257.894531 C 58.472656 258.261719 57.773438 258.59375 57.054688 258.894531 C 56.335938 259.195312 55.605469 259.457031 54.863281 259.683594 C 54.121094 259.910156 53.367188 260.101562 52.605469 260.253906 C 51.839844 260.40625 51.074219 260.519531 50.300781 260.597656 C 49.527344 260.671875 48.75 260.710938 47.972656 260.710938 C 47.195312 260.710938 46.417969 260.671875 45.644531 260.597656 C 44.871094 260.519531 44.105469 260.40625 43.339844 260.253906 C 42.578125 260.101562 41.828125 259.910156 41.082031 259.683594 C 40.339844 259.457031 39.609375 259.195312 38.890625 258.894531 C 38.171875 258.59375 37.472656 258.261719 36.785156 257.894531 C 36.101562 257.523438 35.4375 257.125 34.792969 256.691406 C 34.144531 256.257812 33.523438 255.792969 32.925781 255.296875 C 32.324219 254.800781 31.753906 254.277344 31.203125 253.726562 Z M 31.203125 253.726562 " fill-opacity="1" fill-rule="nonzero"/></g></g></g></g><path fill="#ffffff" d="M 240.929688 265.167969 C 240.84375 265.070312 240.753906 264.976562 240.660156 264.886719 C 240.269531 264.492188 239.847656 264.136719 239.414062 263.820312 L 205.699219 233.9375 C 205.5 233.761719 205.28125 233.628906 205.050781 233.53125 L 196.1875 242.394531 L 195.316406 243.269531 C 195.410156 243.5 195.546875 243.71875 195.722656 243.914062 L 226.058594 277.851562 C 226.296875 278.152344 226.5625 278.433594 226.839844 278.710938 L 226.84375 278.710938 C 230.507812 282.375 236.214844 282.679688 240.066406 279.578125 C 240.332031 279.363281 240.578125 279.125 240.824219 278.878906 C 241.070312 278.632812 241.253906 278.335938 241.492188 278.09375 L 241.496094 278.089844 C 241.707031 277.878906 241.878906 277.636719 242.042969 277.386719 C 244.5 273.671875 244.128906 268.609375 240.929688 265.167969 Z M 240.929688 265.167969 " fill-opacity="1" fill-rule="nonzero"/><g clip-path="url(#d7385cf5dc)"><path fill="#ffffff" d="M 152.46875 215.582031 C 152.894531 215.160156 153.40625 214.777344 153.777344 214.308594 C 154.300781 213.648438 154.273438 212.769531 154.457031 211.988281 C 154.683594 211.039062 154.988281 210.0625 155.589844 209.28125 C 155.953125 208.808594 156.621094 208.023438 157.128906 207.71875 C 157.421875 207.542969 157.726562 207.375 158.042969 207.238281 C 158.632812 206.984375 159.285156 206.847656 159.925781 206.878906 C 160.703125 206.914062 161.429688 207.296875 161.976562 207.847656 C 162.113281 207.984375 162.25 208.121094 162.386719 208.261719 C 162.535156 208.410156 162.6875 208.5625 162.835938 208.714844 C 163.007812 208.886719 163.175781 209.054688 163.34375 209.226562 C 163.539062 209.421875 163.730469 209.617188 163.921875 209.8125 C 164.140625 210.03125 164.359375 210.253906 164.578125 210.472656 C 164.824219 210.722656 165.070312 210.972656 165.316406 211.21875 C 165.589844 211.492188 165.863281 211.769531 166.136719 212.042969 C 166.433594 212.347656 166.730469 212.644531 167.027344 212.949219 C 167.347656 213.273438 167.667969 213.59375 167.992188 213.917969 C 168.332031 214.261719 168.671875 214.609375 169.011719 214.953125 C 169.371094 215.316406 169.726562 215.675781 170.085938 216.039062 C 170.460938 216.414062 170.832031 216.789062 171.203125 217.164062 C 171.585938 217.554688 171.972656 217.941406 172.355469 218.332031 C 172.75 218.726562 173.144531 219.125 173.535156 219.523438 C 173.9375 219.925781 174.339844 220.332031 174.738281 220.734375 C 175.144531 221.144531 175.550781 221.554688 175.957031 221.964844 C 176.367188 222.378906 176.777344 222.792969 177.183594 223.207031 C 177.277344 223.300781 177.371094 223.394531 177.464844 223.484375 L 185.261719 215.6875 L 169.921875 200.5 C 169.171875 199.753906 168.757812 198.351562 168.507812 197.359375 C 168.042969 195.511719 168.4375 193.542969 169.191406 191.828125 C 170.316406 189.265625 172.371094 187.03125 174.425781 185.175781 C 177.71875 182.203125 181.566406 180.65625 184.9375 180.621094 L 186.378906 179.179688 C 181.929688 176.632812 175.546875 178.089844 168.691406 181.394531 C 168.589844 181.441406 168.507812 181.511719 168.402344 181.5625 C 166.683594 182.40625 164.953125 183.386719 163.242188 184.484375 C 159.914062 186.625 156.972656 189.046875 154.53125 191.558594 C 153.714844 192.402344 152.949219 193.191406 152.503906 194.296875 C 151.917969 195.753906 151.566406 197.1875 150.6875 198.523438 C 149.769531 199.917969 148.414062 200.96875 147.015625 201.851562 C 145.710938 202.679688 144.144531 203.46875 142.597656 203.703125 C 141.675781 203.84375 140.949219 203.902344 140.253906 204.152344 C 139.734375 204.335938 139.234375 204.628906 138.691406 205.140625 C 136.800781 206.929688 134.988281 208.835938 133.15625 210.667969 L 145.269531 222.785156 Z M 152.46875 215.582031 " fill-opacity="1" fill-rule="nonzero"/></g><path fill="#ffffff" d="M 215.066406 214.855469 C 221.71875 217.515625 229.605469 216.128906 234.964844 210.71875 C 239.71875 205.921875 241.285156 199.164062 239.675781 193.070312 L 230.101562 203.703125 C 229.449219 204.425781 228.175781 204.914062 227.269531 204.789062 L 218.140625 203.550781 C 217.234375 203.425781 216.386719 202.585938 216.253906 201.679688 L 214.925781 192.5625 C 214.792969 191.65625 215.269531 190.378906 215.984375 189.722656 L 226.578125 179.996094 C 220.433594 178.386719 213.625 180.007812 208.835938 184.84375 C 203.492188 190.238281 202.175781 198.117188 204.875 204.734375 L 163.285156 246.320312 C 156.617188 243.652344 148.707031 245.046875 143.347656 250.480469 C 138.605469 255.292969 137.054688 262.054688 138.675781 268.140625 C 138.675781 268.140625 148.222656 257.496094 148.226562 257.488281 C 149.644531 255.910156 153.460938 255.519531 155.296875 256.199219 C 157.410156 256.980469 159.113281 258.070312 160.410156 259.34375 C 161.683594 260.640625 162.773438 262.34375 163.558594 264.457031 C 164.234375 266.292969 163.84375 270.109375 162.265625 271.527344 C 162.261719 271.535156 151.613281 281.078125 151.613281 281.078125 C 157.703125 282.703125 164.464844 281.152344 169.273438 276.40625 C 174.707031 271.050781 176.101562 263.148438 173.4375 256.484375 Z M 215.066406 214.855469 " fill-opacity="1" fill-rule="nonzero"/></svg>